<svg width="91" height="130" viewBox="0 0 91 130" fill="none" xmlns="http://www.w3.org/2000/svg">
<path d="M39.6229 84.9083C41.3221 84.4154 42.3391 84.3745 42.7411 84.4359C43.1616 84.4071 44.5465 84.3615 44.8547 84.3315C45.4455 84.2827 46.2055 84.2792 48.4418 84.4415C55.3029 85.4925 56.6587 85.9139 57.778 86.2207C59.0105 86.5586 60.53 86.9788 61.6319 87.4108C63.1919 88.0224 65.4037 88.8686 67.2048 89.5594C68.2664 89.9666 69.4176 90.4628 70.3566 90.9081C72.117 91.743 76.6041 93.9121 78.4177 95.2454C79.2712 95.8729 80.3141 96.4208 80.9525 97.5132C81.5939 98.6106 82.8609 101.144 83.2573 104.436C83.4443 105.988 83.5169 108.97 82.3164 111.974C81.3979 114.272 77.2075 117.46 74.2804 118.873C72.8194 119.578 70.5404 120.885 67.5236 121.255C65.9982 121.442 60.8149 121.545 56.8604 121.689C55.9029 121.724 55.0226 121.606 52.3057 121.551C50.0127 121.505 45.9715 121.478 43.1996 121.496C40.4277 121.514 38.9692 121.594 37.9463 121.586C34.5503 121.56 31.3857 121.893 29.0005 121.422C25.4062 120.712 22.9197 120.26 21.2231 118.848C20.2003 117.997 18.0462 115.914 17.1641 114.103L17.1298 114.033C16.5889 112.923 15.9742 111.661 15.7505 110.558C15.5126 109.384 14.8393 108.276 15.66 104.561C16.0468 102.811 16.3847 101.435 17.4661 99.2592C19.3555 95.4584 22.3001 92.3414 24.0907 91.2126C25.3158 90.4402 26.8862 89.245 28.4509 88.6172C30.1519 87.9347 31.2541 87.2402 34.7764 86.2274C36.4349 85.7505 37.7029 85.4653 39.6229 84.9083Z" fill="#EFD0CA" stroke="#EFD0CA" stroke-width="14" stroke-linecap="round"/>
<path d="M40.3939 52.5242C41.6546 52.0725 42.4208 51.9947 42.7271 52.0228C43.0432 51.9816 44.0869 51.8834 44.3182 51.8465C44.7621 51.7824 45.3358 51.7448 47.0317 51.7651C52.2599 52.2466 53.3027 52.5038 54.1617 52.685C55.1076 52.8844 56.274 53.1332 57.1255 53.41C58.3311 53.802 60.0394 54.3418 61.4306 54.7827C62.2506 55.0426 63.1423 55.3659 63.8714 55.6603C65.2385 56.2123 68.7246 57.6504 70.1542 58.5778C70.8271 59.0143 71.6393 59.3817 72.1708 60.1804C72.7047 60.9829 73.7759 62.8453 74.224 65.3221C74.4353 66.4903 74.625 68.7471 73.8543 71.0796C73.2647 72.864 70.2447 75.473 68.0984 76.6784C67.0271 77.2799 65.3654 78.3757 63.1042 78.7947C61.9608 79.0066 58.0517 79.3228 55.0723 79.6137C54.3509 79.6841 53.6808 79.6349 51.6269 79.7182C49.8934 79.7885 46.8408 79.9537 44.7486 80.0948C42.6564 80.236 41.5588 80.3639 40.786 80.4048C38.2206 80.5405 35.8462 80.9384 34.0238 80.6911C31.2778 80.3184 29.3798 80.0898 28.035 79.0976C27.2242 78.4995 25.5035 77.0189 24.7556 75.687L24.7265 75.6352C24.268 74.8187 23.7467 73.8905 23.528 73.0644C23.2953 72.1858 22.7368 71.3762 23.1885 68.5229C23.4015 67.178 23.5944 66.1194 24.3126 64.4207C25.5674 61.4527 27.6499 58.9546 28.9509 58.0167C29.841 57.3749 30.9728 56.3967 32.1258 55.8489C33.3794 55.2534 34.1803 54.6764 36.7941 53.7467C38.0248 53.3091 38.9694 53.0346 40.3939 52.5242Z" fill="#90C4FB" stroke="#90C4FB" stroke-width="14" stroke-linecap="round"/>
<path d="M49.959 46.6695C49.959 42.4832 50.1425 32.9471 50.0947 28.0421C50.0486 23.3142 48.5766 20.2557 48.371 17.341C47.8012 14.5 47.5437 12.2794 47.3724 10.488C47.2861 9.4765 47.2011 8.25687 47.1135 7.00027" stroke="#25D0C2" stroke-width="14" stroke-linecap="round"/>
<path d="M46.1201 14.854C45.0976 14.684 42.1845 13.9989 39.1752 13.2443C35.9709 12.4408 32.4876 11.1551 27.2032 10.4241C20.4617 9.49156 17.3759 12.1517 14.5571 13.3076C11.7756 14.4482 9.47488 18.0462 7.20705 20.9526C6.7367 21.5554 7.14125 22.4349 7.56803 23.0778C8.45403 24.4122 9.88821 25.2579 11.0332 26.0601C13.9425 28.0987 18.9007 26.3603 23.7713 26.1837C27.1724 26.0604 30.4603 24.9359 33.3594 23.804C36.6281 22.5279 38.862 21.03 39.6634 20.3036C40.0262 19.9749 39.3707 19.1523 38.7693 18.7595C35.8592 16.8589 31.3913 18.6961 28.0806 19.3754C25.0306 19.4616 22.4114 19.5452 20.7848 19.672C19.9233 19.7151 18.9883 19.7151 18.025 19.7151" stroke="#25D0C2" stroke-width="14" stroke-linecap="round"/>
</svg>
